<?xml version="1.0" encoding="UTF-8"?>
<svg id="Camada_2" data-name="Camada 2" xmlns="http://www.w3.org/2000/svg" viewBox="0 0 695.38 196.37">
  <defs>
    <style>
      .cls-1 {
        fill: #535451;
      }
    </style>
  </defs>
  <g id="Camada_1-2" data-name="Camada 1">
    <g>
      <path class="cls-1" d="M35.66,63.35l-6.08-1.75c-6.34-1.62-10.93-3.64-10.93-7.98s4.59-6.62,11.21-6.62,12.7,1.5,18.51,4.73l7.7-12.01c-7.17-4.86-16.48-7.17-27.43-7.17C11.34,32.55,0,42.14,0,56.6,0,68.08,8.37,72.81,20.68,76.06l6.07,1.62c7.3,1.89,12.43,4.33,12.43,8.78s-4.59,7.29-11.34,7.29c-7.15,0-14.04-1.34-20.93-5.4L0,99.43c6.62,5.81,16.48,8.65,27.55,8.65,18.24,0,30.41-9.2,30.41-22.96,0-12.84-9.87-18.51-22.29-21.76ZM100.69,32.55c-12.68,0-21.88,3.11-29.72,9.45l7.98,10.81c4.59-3.78,10.14-5.81,17.02-5.81,11.09,0,17.57,5.81,17.57,15.54v1.36c-5.53-1.08-11.07-1.63-16.07-1.63-18.65,0-31.08,9.2-31.08,23.24s10.14,22.57,25.27,22.57c8.92,0,17.29-4.19,22.16-11.76l.41,10.4h17.69v-45.79c0-17.15-12.56-28.38-31.21-28.38ZM96.9,94.96c-7.43,0-11.34-3.92-11.34-9.85,0-6.22,5.53-10.28,14.18-10.28,4.19,0,9.06.55,13.78,1.5-.14,11.88-8.1,18.63-16.62,18.63ZM182.55,32.55c-9.73,0-18.24,3.64-23.77,10.54l-.28-9.18h-17.7v72.81h18.37v-42.81c0-9.47,6.75-15.68,17.02-15.68s17.03,6.2,17.03,15.68v42.81h18.37v-45.79c0-17.03-11.62-28.38-29.05-28.38ZM256.75,32.55c-12.7,0-21.88,3.11-29.72,9.45l7.98,10.81c4.59-3.78,10.12-5.81,17.02-5.81,11.09,0,17.57,5.81,17.57,15.54v1.36c-5.53-1.08-11.09-1.63-16.07-1.63-18.65,0-31.08,9.2-31.08,23.24s10.12,22.57,25.27,22.57c8.9,0,17.29-4.19,22.16-11.76l.4,10.4h17.7v-45.79c0-17.15-12.56-28.38-31.21-28.38ZM252.97,94.96c-7.43,0-11.34-3.92-11.34-9.85,0-6.22,5.53-10.28,14.18-10.28,4.19,0,9.06.55,13.78,1.5-.14,11.88-8.11,18.63-16.62,18.63ZM314.85,43.64l-.28-9.73h-17.7v72.81h18.37v-39.03c0-10.95,10-18.24,25.13-18.24l1.22-16.9c-11.76,0-20.93,3.92-26.74,11.09ZM359.41,22.96v10.95h-11.76v14.99h11.76v57.82h18.37v-57.82h19.18v-14.99h-19.18v-8.11c0-6.08,4.45-10,11.07-10,3.39,0,6.08.28,8.92,1.5l1.22-14.32c-4.33-2.03-10.14-2.97-16.07-2.97-14.06,0-23.51,9.04-23.51,22.96ZM408.45,106.72h18.37V1.34h-18.37v105.38ZM438.96,106.72h18.37V33.91h-18.37v72.81ZM448.15.28c-6.36,0-10.95,4.59-10.95,10.93s4.59,10.81,10.95,10.81,10.79-4.45,10.79-10.81-4.45-10.93-10.79-10.93ZM510.29,69.44l26.19-35.53h-21.88l-15.26,22.02-15.26-22.02h-21.88l26.19,35.53-27.83,37.28h21.9l16.88-23.91,16.88,23.91h21.9l-27.83-37.28Z"/>
      <path class="cls-1" d="M658.75,33.49h-73.58c-20.2,0-36.63,16.43-36.63,36.63s16.43,36.63,36.63,36.63h73.58c20.2,0,36.63-16.43,36.63-36.63s-16.43-36.63-36.63-36.63ZM691.56,70.12c0,18.09-14.72,32.8-32.8,32.8h-73.58c-18.09,0-32.8-14.72-32.8-32.8s14.72-32.81,32.8-32.81h73.58c18.09,0,32.8,14.72,32.8,32.81Z"/>
      <g>
        <path class="cls-1" d="M602.5,63.85c0,7.45-5.25,12.45-13.2,12.45h-6.84c-.47,0-.86.38-.86.86v10.88c0,.47-.38.86-.86.86h-5.33c-.47,0-.86-.38-.86-.86v-35.29c0-.47.38-.86.86-.86h14.14c7.8,0,12.95,4.8,12.95,11.95ZM595.25,64.1c0-3.8-2.55-6.35-6.45-6.35h-6.34c-.47,0-.86.38-.86.86v10.98c0,.47.38.86.86.86h6.34c4,0,6.45-2.55,6.45-6.35Z"/>
        <path class="cls-1" d="M619.47,75.3h-6.21c-.47,0-.86.38-.86.86v11.88c0,.47-.38.86-.86.86h-5.33c-.47,0-.86-.38-.86-.86v-35.29c0-.47.38-.86.86-.86h14.64c7.8,0,12.95,4.7,12.95,11.7,0,4.48-2.22,8-6.01,9.95-.44.23-.58.8-.31,1.22l8.35,12.8c.37.57-.04,1.33-.72,1.33h-6.24c-.3,0-.57-.15-.73-.41l-7.95-12.79c-.16-.25-.43-.41-.73-.41ZM612.39,68.6c0,.47.38.86.86.86h6.29c4.2,0,7-2.35,7-5.85s-2.6-5.85-6.5-5.85h-6.79c-.47,0-.86.38-.86.86v9.98Z"/>
        <path class="cls-1" d="M635.81,70.12c0-11.4,7.8-19,19.45-19s19.4,7.6,19.4,19-7.8,19-19.4,19-19.45-7.6-19.45-19ZM667.36,70.12c0-7.9-4.85-13.15-12.1-13.15s-12.15,5.25-12.15,13.15,4.9,13.15,12.15,13.15,12.1-5.25,12.1-13.15Z"/>
      </g>
    </g>
    <g>
      <path class="cls-1" d="M1.47,191.56l2.74-4.91c3.26,2.69,6.88,3.67,10.39,3.67,4.81,0,7.6-1.65,7.6-4.6,0-3.1-3.21-4.45-8.01-5.79l-2.17-.62c-6.31-1.71-11.01-4.34-11.01-10.6,0-6.98,5.63-11.63,14.17-11.63,4.91,0,9.25,1.45,12.92,4.39l-3.26,5.07c-2.84-2.27-5.89-3.41-9.62-3.41-4.03,0-6.67,1.71-6.67,4.39,0,3.05,3.05,4.14,6.82,5.22l2.22.62c5.89,1.6,12.15,4.81,12.15,11.68s-5.89,11.32-14.68,11.32c-5.27,0-10.18-1.65-13.6-4.81Z"/>
      <path class="cls-1" d="M53.97,157.6h7.29v38.26h-7.29v-38.26Z"/>
      <path class="cls-1" d="M123.12,195.86l-1.5-26.11-11.68,26.11h-4.03l-11.68-26-1.5,26h-7.29l2.58-38.46h8.01l11.89,26.52,11.89-26.52h8.01l2.58,38.46h-7.29Z"/>
      <path class="cls-1" d="M154.45,181.38v-23.78h7.29v23.47c0,5.53,3.83,9.25,9.51,9.25s9.41-3.72,9.41-9.25v-23.47h7.29v23.78c0,9-6.67,14.99-16.7,14.99s-16.8-6-16.8-14.99Z"/>
      <path class="cls-1" d="M236.41,189.81v6.05h-24.19v-38.26h7.29v32.21h16.9Z"/>
      <path class="cls-1" d="M288.99,188.26h-17.63l-3.1,7.6h-7.81l16.34-38.26h6.77l16.34,38.26h-7.81l-3.1-7.6ZM286.56,182.21l-6.36-15.56-6.36,15.56h12.72Z"/>
      <path class="cls-1" d="M357.78,176.73c0,11.48-7.55,19.13-18.87,19.13h-15.04v-38.26h15.04c11.32,0,18.87,7.65,18.87,19.13ZM350.18,176.73c0-7.86-4.5-13.08-11.27-13.08h-7.75v26.16h7.75c6.77,0,11.27-5.22,11.27-13.08Z"/>
      <path class="cls-1" d="M381.93,176.73c0-11.79,8.07-19.64,20.11-19.64s20.06,7.86,20.06,19.64-8.06,19.64-20.06,19.64-20.11-7.86-20.11-19.64ZM414.55,176.73c0-8.17-5.01-13.6-12.51-13.6s-12.56,5.43-12.56,13.6,5.07,13.6,12.56,13.6,12.51-5.43,12.51-13.6Z"/>
      <path class="cls-1" d="M446.67,191.56l2.74-4.91c3.26,2.69,6.88,3.67,10.39,3.67,4.81,0,7.6-1.65,7.6-4.6,0-3.1-3.21-4.45-8.01-5.79l-2.17-.62c-6.31-1.71-11.01-4.34-11.01-10.6,0-6.98,5.63-11.63,14.17-11.63,4.91,0,9.25,1.45,12.92,4.39l-3.26,5.07c-2.84-2.27-5.89-3.41-9.62-3.41-4.03,0-6.67,1.71-6.67,4.39,0,3.05,3.05,4.14,6.82,5.22l2.22.62c5.89,1.6,12.15,4.81,12.15,11.68s-5.89,11.32-14.68,11.32c-5.27,0-10.18-1.65-13.6-4.81Z"/>
    </g>
  </g>
</svg>